<?xml version="1.0" standalone="no"?>
<svg version="1.0" xmlns="http://www.w3.org/2000/svg"
 width="438.000000pt" height="500.000000pt" viewBox="0 0 438.000000 500.000000"
 preserveAspectRatio="xMidYMid meet">

<g transform="translate(0.000000,500.000000) scale(0.100000,-0.100000)"
fill="#000000" stroke="none">
<path d="M1695 4970 c-33 -10 -121 -36 -195 -59 -574 -171 -839 -271 -1033
-387 -133 -80 -357 -266 -357 -296 0 -8 21 -44 47 -80 135 -189 204 -294 324
-489 72 -118 139 -225 148 -239 8 -14 21 -34 27 -45 6 -11 30 -52 53 -92 22
-40 41 -75 41 -77 0 -11 -82 -47 -320 -139 -135 -53 -283 -111 -330 -130 l-85
-35 1 -68 c2 -93 34 -164 73 -164 38 0 336 104 456 160 162 74 305 129 305
118 0 -3 -20 -47 -44 -99 -138 -295 -165 -676 -70 -974 67 -207 141 -303 333
-434 108 -73 161 -100 282 -145 52 -19 69 -40 142 -177 83 -155 85 -230 14
-387 -25 -53 -55 -131 -66 -172 -52 -176 -62 -209 -91 -290 -46 -126 -47 -125
25 -124 40 1 103 15 188 43 70 22 130 41 132 41 10 0 4 -75 -11 -142 -18 -80
-12 -94 35 -83 49 10 71 52 81 152 5 49 10 93 10 100 0 6 21 18 47 27 52 18
133 21 133 6 0 -5 -14 -10 -30 -10 -46 0 -65 -27 -80 -112 -16 -97 -8 -151 23
-146 35 5 48 44 41 125 -5 58 -4 73 7 73 28 0 341 48 346 53 18 18 -19 27
-111 27 -99 0 -103 1 -116 25 -29 55 -75 66 -215 53 l-30 -3 -2 60 c-12 279
-64 438 -225 685 -65 101 -81 130 -75 137 5 5 166 -12 220 -23 35 -7 51 -39
81 -161 25 -106 29 -110 105 -112 l34 -1 -7 -68 c-7 -67 -6 -69 32 -127 22
-33 84 -112 138 -175 55 -64 136 -170 182 -237 46 -67 99 -134 118 -148 40
-30 144 -79 190 -89 24 -5 36 -16 50 -47 33 -74 74 -70 74 7 0 34 5 47 26 63
15 12 33 21 41 21 21 0 70 112 83 191 7 39 10 136 8 226 -3 151 -4 160 -30
207 -16 27 -28 50 -28 51 0 1 25 20 55 40 30 21 55 42 55 47 0 4 -36 65 -79
135 l-79 127 45 58 c25 32 49 58 53 58 21 0 32 -40 39 -147 l8 -118 71 -145
c74 -153 121 -281 173 -470 26 -98 32 -138 36 -268 l5 -153 37 3 36 3 3 90 c5
128 -14 268 -53 401 -28 94 -151 418 -245 644 -10 24 -17 48 -14 51 7 12 80
-12 146 -47 206 -111 273 -131 362 -109 103 26 166 96 287 318 105 192 153
264 226 339 l66 67 36 -29 c20 -16 66 -41 104 -54 l67 -26 0 44 c0 43 1 44 38
51 79 13 78 41 -3 80 -72 36 -223 47 -274 21 -72 -38 -153 -137 -265 -327 -60
-101 -128 -208 -150 -238 -42 -56 -116 -118 -150 -127 -28 -6 -339 106 -437
158 -89 47 -153 100 -194 157 l-28 42 30 32 c173 185 303 470 334 730 11 93 8
242 -6 298 l-7 26 74 -25 c91 -30 180 -26 278 14 137 55 156 84 125 190 -29
101 -101 147 -155 99 -26 -23 -25 -55 1 -89 22 -28 39 -32 57 -14 9 9 4 16
-19 30 -33 20 -31 38 5 38 27 0 49 -36 44 -71 -5 -38 -87 -74 -168 -74 -55 0
-77 6 -144 38 -44 22 -89 43 -101 47 -18 7 -24 22 -34 85 -46 283 -173 442
-518 649 -43 25 -46 29 -30 41 26 19 186 68 376 115 182 46 258 73 324 119 49
33 97 99 123 168 21 54 13 63 -57 63 -118 0 -303 -46 -644 -163 -255 -87 -248
-86 -286 -48 -28 28 -147 263 -347 683 -97 205 -225 411 -294 475 -23 21 -23
21 -83 3z m650 -1166 c30 -40 29 -44 -23 -60 -20 -7 -136 -46 -257 -87 -121
-42 -431 -148 -690 -235 -258 -88 -489 -167 -513 -175 l-44 -15 -29 46 c-16
25 -29 49 -29 52 0 4 66 28 148 55 81 26 262 85 402 131 140 45 325 105 410
133 85 28 250 82 365 120 116 38 215 70 221 70 7 1 24 -15 39 -35z m369 -442
c122 -61 202 -138 255 -246 37 -76 70 -190 84 -288 l6 -37 -47 -6 c-81 -12
-186 -37 -216 -52 -44 -22 -132 -109 -146 -143 -7 -17 -16 -30 -20 -30 -4 0
-33 9 -66 21 -40 14 -86 21 -144 22 -77 2 -91 -1 -150 -30 -109 -53 -192 -151
-289 -338 -23 -44 -50 -105 -60 -135 -15 -43 -25 -56 -46 -62 -46 -12 -95 18
-95 59 0 12 2 23 4 23 2 0 11 3 20 6 11 4 15 -1 13 -22 -3 -34 18 -42 33 -14
39 72 -61 112 -103 41 -25 -43 -22 -83 11 -113 67 -63 144 -75 203 -33 47 35
77 69 189 220 53 72 114 145 134 163 42 37 78 41 166 17 46 -12 73 -13 159 -4
157 17 179 25 222 89 79 112 120 140 215 140 l40 0 12 -89 c16 -115 15 -157
-3 -270 -26 -160 -85 -309 -175 -441 -122 -179 -325 -326 -549 -400 -148 -48
-240 -60 -462 -60 -289 0 -398 19 -550 96 -113 56 -258 153 -258 172 -5 201
-12 312 -20 355 -20 94 -34 208 -46 375 -10 124 -9 125 101 45 262 -189 316
-216 434 -216 240 -1 374 191 331 473 -16 99 -64 256 -111 355 -48 101 -65
124 -81 108 -9 -9 -7 -23 7 -63 23 -64 16 -70 -77 -70 -92 0 -223 -26 -283
-57 -90 -46 -206 -172 -358 -388 -34 -49 -56 -129 -37 -140 5 -4 8 -16 8 -28
0 -12 5 -44 11 -72 6 -27 13 -77 15 -110 2 -33 9 -89 14 -125 5 -36 15 -119
21 -185 6 -66 13 -136 16 -155 l5 -35 -33 37 c-53 59 -99 142 -136 250 -31 93
-35 114 -39 247 -8 238 11 349 85 500 81 163 221 259 642 438 304 130 584 231
680 244 30 4 128 7 216 5 l162 -2 86 -42z m-1031 -461 c14 -14 -237 -490 -297
-566 l-23 -29 -34 24 c-19 13 -41 32 -50 43 -18 23 -16 29 142 355 43 90 79
167 79 172 0 5 6 10 13 13 20 7 161 -3 170 -12z m-288 -73 c-39 -77 -167 -305
-185 -328 l-19 -25 -10 28 c-30 77 16 214 99 297 41 41 122 85 128 69 2 -4 -4
-23 -13 -41z m359 16 c-3 -67 -273 -584 -305 -584 -10 0 -20 4 -23 9 -4 5 22
56 56 113 35 57 105 192 157 301 90 188 118 226 115 161z m72 -121 c23 -53 12
-100 -44 -185 -27 -40 -72 -113 -102 -163 -72 -122 -75 -125 -127 -125 -23 0
-43 2 -43 5 0 23 234 449 268 488 22 25 31 21 48 -20z m34 -229 c0 -28 -8 -54
-26 -80 -37 -56 -127 -134 -140 -122 -2 3 30 65 72 138 80 138 94 147 94 64z
m912 -1113 l62 -58 -52 -61 c-29 -33 -52 -65 -52 -71 0 -6 34 -61 76 -123 72
-107 76 -114 62 -138 -18 -33 -40 -36 -54 -8 -6 13 -45 77 -86 143 l-76 120 8
55 c5 30 9 82 9 116 1 55 12 84 33 84 4 0 36 -26 70 -59z m-152 -30 c0 -46
-15 -107 -30 -124 -7 -8 -160 88 -160 101 0 7 153 68 178 71 8 1 12 -15 12
-48z m-350 -71 c0 -33 -78 -240 -90 -240 -8 0 -65 219 -58 225 5 5 117 32 136
32 6 0 12 -8 12 -17z m186 -46 c46 -36 84 -68 84 -72 0 -4 -9 -41 -20 -82 -20
-70 -39 -100 -65 -100 -6 0 -48 29 -93 65 -53 43 -82 72 -82 85 0 29 67 170
81 170 6 0 49 -29 95 -66z m-400 -20 c16 -37 37 -127 59 -258 19 -110 39 -216
44 -235 6 -19 9 -37 6 -39 -10 -11 -67 44 -110 107 -48 70 -48 70 -40 128 15
114 18 107 -54 113 l-64 5 -19 68 c-10 38 -27 86 -38 107 -11 22 -20 44 -20
50 0 6 39 10 106 10 l105 0 25 -56z m632 -198 c34 -57 78 -138 97 -179 67
-146 69 -300 5 -362 -35 -34 -44 -30 -29 14 6 17 8 46 5 64 -10 54 -88 216
-154 321 -62 97 -62 100 -48 130 8 17 22 50 31 74 10 23 20 42 24 42 4 0 35
-47 69 -104z m-360 -22 c53 -57 60 -69 56 -97 -14 -103 -24 -238 -24 -315 l0
-89 56 -62 c31 -34 55 -64 53 -66 -10 -9 -92 15 -104 31 -32 41 -156 303 -170
359 -19 76 -19 153 1 200 18 44 56 105 66 105 3 0 33 -30 66 -66z m251 -184
c27 -47 67 -123 91 -169 l42 -85 -13 -60 c-9 -45 -21 -70 -45 -93 -54 -55 -95
-41 -181 62 -47 55 -53 68 -53 108 0 45 28 329 33 332 57 30 55 32 126 -95z
m-908 -102 c21 -49 23 -67 24 -217 0 -136 -3 -165 -15 -172 -27 -14 -214 -68
-219 -63 -7 6 25 126 71 268 35 109 94 236 109 236 4 0 17 -24 30 -52z m1159
-296 c0 -28 -16 -131 -26 -165 -7 -23 -81 -77 -106 -77 -23 0 -34 29 -40 107
l-4 61 45 21 c25 11 62 34 81 50 44 38 50 38 50 3z m-313 -90 c91 -5 86 0 99
-98 3 -29 2 -54 -3 -57 -18 -11 -98 37 -155 94 -58 57 -75 88 -40 74 9 -4 54
-10 99 -13z"/>
<path d="M2007 3252 c-15 -15 -27 -33 -27 -39 0 -5 44 -30 98 -55 140 -66 138
-63 111 -122 -18 -41 -20 -59 -14 -115 13 -119 43 -165 156 -232 192 -115 394
-45 438 152 6 25 13 89 17 142 l7 96 -33 31 c-18 17 -31 32 -29 33 2 2 17 7
34 13 16 5 31 18 33 28 4 21 7 21 -238 -4 -240 -24 -380 -6 -468 60 -29 22
-54 40 -55 40 -2 0 -15 -13 -30 -28z m629 -173 c24 -6 44 -14 44 -18 0 -3 -55
-19 -121 -35 -128 -31 -235 -75 -245 -101 -3 -8 -13 -15 -21 -15 -12 0 -14 8
-10 36 10 60 40 82 167 125 64 21 123 24 186 8z m78 -71 c3 -13 6 -48 6 -79 0
-115 -101 -205 -242 -216 -75 -6 -145 18 -173 60 -15 23 -15 28 0 56 20 39 77
81 177 132 l77 39 12 -38 c6 -20 16 -43 22 -49 14 -19 44 -16 68 8 17 17 20
29 15 59 -3 20 -3 40 1 43 13 14 31 6 37 -15z"/>
<path d="M2845 2409 c-4 -5 16 -35 44 -64 51 -54 52 -55 45 -105 -7 -53 6 -68
26 -31 27 51 2 165 -44 196 -24 17 -62 20 -71 4z"/>
<path d="M2382 2285 c-19 -8 -37 -26 -43 -42 -25 -66 22 -182 86 -209 16 -7
33 -10 36 -8 3 2 -5 41 -18 86 -18 62 -23 96 -19 136 7 57 6 58 -42 37z"/>
<path d="M2639 2289 c-47 -7 -93 -31 -116 -59 -11 -14 -18 -60 -9 -60 2 0 32
13 67 29 44 21 93 33 159 41 52 6 96 13 99 16 23 22 -114 45 -200 33z"/>
<path d="M2623 2170 c-32 -19 -42 -43 -25 -54 5 -3 32 4 61 14 28 11 70 20 94
20 l42 1 -24 19 c-31 27 -105 27 -148 0z"/>
</g>
</svg>
